<?xml version="1.0" encoding="utf-8"?>
<!-- Generator: Adobe Illustrator 27.1.0, SVG Export Plug-In . SVG Version: 6.00 Build 0)  -->
<svg version="1.1" xmlns="http://www.w3.org/2000/svg" xmlns:xlink="http://www.w3.org/1999/xlink" x="0px" y="0px"
	 viewBox="0 0 500 500" style="enable-background:new 0 0 500 500;" xml:space="preserve">
<style type="text/css">
	.st0{fill:url(#SVGID_1_);}
	.st1{opacity:0.98;fill:url(#SVGID_00000098202610128745450970000002760364921632898228_);}
</style>
<g id="BACKGROUND">
</g>
<g id="OBJECTS">
	<g>
		<linearGradient id="SVGID_1_" gradientUnits="userSpaceOnUse" x1="95.3453" y1="241.5417" x2="346.2601" y2="169.4342">
			<stop  offset="0.5534" style="stop-color:#80E1E6"/>
			<stop  offset="0.5843" style="stop-color:#7CD9E9"/>
			<stop  offset="0.6984" style="stop-color:#6FC3F3"/>
			<stop  offset="0.8062" style="stop-color:#67B5F9"/>
			<stop  offset="0.9002" style="stop-color:#64B0FB"/>
		</linearGradient>
		<path class="st0" d="M353.1,109.03v61.04c-11.98-13.97-29.38-20.54-49.06-20.54c-17.16,0-32.61,4.6-45.07,13.02
			c-3.44,2.3-6.64,4.9-9.6,7.77c-11.54-14.53-29.54-21.39-50.62-21.39c-15.55,0-29.4,3.66-40.36,10.57
			c-0.46,0.27-0.91,0.56-1.36,0.86c-3.57,2.39-6.81,5.12-9.68,8.2v-60.85c0-9.45-7.66-17.11-17.11-17.11h-1.87
			c-9.45,0-17.11,7.66-17.11,17.11v180.03c0,9.45,7.66,17.11,17.11,17.11h1.87c9.45,0,17.11-7.66,17.11-17.11V226.9
			c0-20.57,7.68-34.37,20.42-41.28c6.38-3.47,14.02-5.21,22.59-5.21c23.1,0,36.68,13.28,36.68,40.72v5.18
			c-0.01,0.37-0.01,0.74-0.01,1.1c0,0.37,0,0.74,0.01,1.11c0.32,30.43,14.28,53.9,36.09,66.58c11.68,6.79,25.62,10.48,40.91,10.48
			c20.83,0,38.51-7.12,50.5-21.68v2.57c0,9.45,7.66,17.11,17.11,17.11h0c9.45,0,17.11-7.66,17.11-17.11V109.03
			c0-9.45-7.66-17.11-17.11-17.11h-1.44C360.76,91.92,353.1,99.58,353.1,109.03z M308.31,275.06c-14.63,0-27.32-6.02-35.51-16.6
			c-5.44-7-8.9-15.98-9.68-26.52v-9.04c0.74-10.13,3.98-18.82,9.06-25.69c8.17-11.09,21.13-17.43,36.13-17.43
			c25.68,0,45.35,18.54,45.35,47.64C353.67,256.52,333.99,275.06,308.31,275.06z"/>
	</g>
	
		<linearGradient id="SVGID_00000072269097194935963260000007867928898084714162_" gradientUnits="userSpaceOnUse" x1="285.6082" y1="179.2709" x2="257.4962" y2="194.6714">
		<stop  offset="0.6074" style="stop-color:#62E3E8;stop-opacity:0"/>
		<stop  offset="0.8058" style="stop-color:#61C9F5;stop-opacity:0.5053"/>
		<stop  offset="1" style="stop-color:#60B3FF"/>
	</linearGradient>
	<path style="opacity:0.98;fill:url(#SVGID_00000072269097194935963260000007867928898084714162_);" d="M263.13,222.9v-6.39
		c0-19.98-5.05-35.26-13.77-46.18c2.96-2.87,6.16-5.47,9.6-7.77c0.03,0.03,0.05,0.06,0.08,0.09c6.93,8.7,11.56,20.16,13.15,34.56
		C267.1,204.08,263.86,212.76,263.13,222.9z"/>
</g>
<g id="TEXTS">
</g>
</svg>
